<?xml version="1.0" standalone="no"?>
<!DOCTYPE svg PUBLIC "-//W3C//DTD SVG 20010904//EN"
 "http://www.w3.org/TR/2001/REC-SVG-20010904/DTD/svg10.dtd">
<svg version="1.0" xmlns="http://www.w3.org/2000/svg"
 width="478.000000pt" height="220.000000pt" viewBox="0 0 478.000000 220.000000"
 preserveAspectRatio="xMidYMid meet">

<g transform="translate(0.000000,220.000000) scale(0.100000,-0.100000)"
fill="#000000" stroke="none">
<path d="M845 1786 c-44 -19 -90 -76 -103 -127 -6 -24 -23 -96 -37 -159 -46
-212 -41 -201 -118 -229 -39 -14 -64 -28 -60 -34 3 -6 1 -7 -5 -3 -13 8 -153
-34 -147 -43 1 -3 -12 -6 -30 -7 -43 -1 -122 -48 -146 -87 -30 -50 -21 -182
11 -162 6 3 7 0 5 -8 -7 -16 30 -52 44 -43 5 4 13 1 17 -5 5 -8 3 -9 -6 -4 -9
6 -11 4 -6 -4 5 -7 15 -10 23 -7 8 3 11 2 8 -4 -8 -12 52 -43 67 -34 7 5 8 3
3 -6 -6 -10 -4 -12 9 -7 11 5 15 3 10 -5 -5 -8 -2 -9 9 -5 10 4 16 2 14 -6 -1
-7 6 -11 15 -11 10 1 15 -3 11 -9 -4 -6 0 -8 10 -4 10 4 16 2 14 -6 -1 -7 6
-11 15 -11 10 1 15 -2 13 -7 -7 -11 33 -32 45 -24 6 4 9 1 8 -7 -2 -7 5 -12
14 -12 10 1 16 -2 13 -6 -3 -5 -1 -10 5 -12 5 -2 16 -96 23 -213 15 -227 21
-252 77 -299 25 -20 42 -26 80 -26 55 0 83 8 74 21 -3 5 3 6 12 2 12 -4 15 -3
10 5 -4 7 -2 10 6 7 8 -3 52 35 103 87 75 78 79 82 20 28 l-70 -65 64 67 c36
37 68 65 72 62 10 -6 80 56 74 66 -2 4 17 7 44 6 27 0 47 -5 43 -10 -3 -5 5
-7 17 -3 13 3 20 3 17 0 -9 -9 216 -94 232 -88 7 3 10 1 7 -5 -8 -13 60 -30
121 -30 63 0 111 29 138 84 17 35 18 47 9 100 -6 34 -18 78 -27 98 l-16 38
-64 0 c-71 0 -113 12 -132 38 -22 29 -17 -7 11 -83 14 -37 24 -70 21 -72 -2
-2 -18 2 -34 11 -16 8 -89 36 -162 61 -113 38 -144 45 -211 45 l-78 0 -131
-126 c-71 -70 -130 -125 -131 -123 0 2 -6 87 -13 189 -9 133 -17 194 -29 217
-16 30 -185 146 -296 202 -24 13 -39 26 -35 31 5 4 74 29 154 55 178 59 215
77 240 117 11 18 38 110 61 205 24 95 45 173 48 172 3 0 56 -69 116 -152 l110
-152 225 -2 c385 -4 432 -4 439 2 13 13 3 93 -15 123 -24 42 -87 72 -148 72
-27 0 -120 -7 -208 -16 -88 -8 -167 -12 -176 -8 -9 4 -21 8 -27 8 -5 1 -10 10
-10 21 0 11 -7 20 -15 20 -8 0 -15 9 -15 20 0 11 -7 20 -15 20 -8 0 -15 9 -15
20 0 11 -5 19 -11 18 -7 -1 -11 5 -10 15 0 9 -6 17 -14 17 -8 0 -15 9 -15 20
0 11 -7 20 -15 20 -8 0 -15 9 -15 20 0 11 -5 19 -11 18 -7 -1 -11 5 -10 15 0
9 -6 17 -14 17 -8 0 -14 8 -12 16 3 19 -20 41 -39 37 -7 -2 -13 4 -14 12 0 15
-54 39 -90 39 -11 0 -34 -6 -50 -13z m-15 -19 c0 -2 -12 -14 -27 -28 l-28 -24
24 28 c23 25 31 32 31 24z m40 -71 c0 -2 -8 -10 -17 -17 -16 -13 -17 -12 -4 4
13 16 21 21 21 13z m95 -26 c10 -11 16 -20 13 -20 -3 0 -13 9 -23 20 -10 11
-16 20 -13 20 3 0 13 -9 23 -20z m642 -236 c-3 -3 -12 -4 -19 -1 -8 3 -5 6 6
6 11 1 17 -2 13 -5z m-104 -11 c-7 -2 -19 -2 -25 0 -7 3 -2 5 12 5 14 0 19 -2
13 -5z m-110 -10 c-7 -2 -19 -2 -25 0 -7 3 -2 5 12 5 14 0 19 -2 13 -5z m377
-18 c13 -14 21 -25 18 -25 -2 0 -15 11 -28 25 -13 14 -21 25 -18 25 2 0 15
-11 28 -25z m-123 -31 c-3 -3 -12 -4 -19 -1 -8 3 -5 6 6 6 11 1 17 -2 13 -5z
m-84 -11 c-7 -2 -19 -2 -25 0 -7 3 -2 5 12 5 14 0 19 -2 13 -5z m-105 -10
c-10 -2 -26 -2 -35 0 -10 3 -2 5 17 5 19 0 27 -2 18 -5z m-130 -10 c-10 -2
-26 -2 -35 0 -10 3 -2 5 17 5 19 0 27 -2 18 -5z m442 -66 c33 -4 33 -4 -7 -5
-35 -2 -43 1 -43 16 0 11 3 13 8 5 4 -6 23 -13 42 -16z m-1050 -42 c-7 -8 -17
-15 -23 -15 -6 0 -2 7 9 15 25 19 30 19 14 0z m-480 -99 c0 -2 -8 -10 -17 -17
-16 -13 -17 -12 -4 4 13 16 21 21 21 13z m411 -383 c13 -16 12 -17 -3 -4 -10
7 -18 15 -18 17 0 8 8 3 21 -13z m16 -55 c-3 -7 -5 -2 -5 12 0 14 2 19 5 13 2
-7 2 -19 0 -25z m-70 -30 c-3 -8 -6 -5 -6 6 -1 11 2 17 5 13 3 -3 4 -12 1 -19z
m1103 -58 c0 -5 -2 -10 -4 -10 -3 0 -8 5 -11 10 -3 6 -1 10 4 10 6 0 11 -4 11
-10z m-1023 -57 c-3 -10 -5 -2 -5 17 0 19 2 27 5 18 2 -10 2 -26 0 -35z m-70
-40 c-3 -10 -5 -4 -5 12 0 17 2 24 5 18 2 -7 2 -21 0 -30z m513 33 c0 -2 -7
-7 -16 -10 -8 -3 -12 -2 -9 4 6 10 25 14 25 6z m-120 -101 c-24 -25 -46 -45
-49 -45 -3 0 15 20 39 45 24 25 46 45 49 45 3 0 -15 -20 -39 -45z m-313 -67
c-2 -13 -4 -3 -4 22 0 25 2 35 4 23 2 -13 2 -33 0 -45z m1033 -1 c0 -2 -10
-12 -22 -23 l-23 -19 19 23 c18 21 26 27 26 19z m-1103 -49 c-3 -7 -5 -2 -5
12 0 14 2 19 5 13 2 -7 2 -19 0 -25z m273 9 c0 -2 -15 -16 -32 -33 l-33 -29
29 33 c28 30 36 37 36 29z m-123 -93 c-3 -3 -12 -4 -19 -1 -8 3 -5 6 6 6 11 1
17 -2 13 -5z m133 -8 c0 -2 -8 -10 -17 -17 -16 -13 -17 -12 -4 4 13 16 21 21
21 13z m-235 -26 c10 -11 16 -20 13 -20 -3 0 -13 9 -23 20 -10 11 -16 20 -13
20 3 0 13 -9 23 -20z"/>
<path d="M3389 1623 c15 -30 31 -114 20 -107 -5 3 -9 1 -9 -5 0 -6 -15 -27
-32 -48 -18 -20 -27 -33 -20 -29 16 10 132 25 128 17 -2 -3 11 -18 29 -33 l32
-27 -10 37 c-13 49 -4 83 33 126 l30 34 -42 -12 c-27 -8 -54 -10 -72 -5 -16 5
-34 5 -39 2 -6 -3 -7 -2 -4 4 4 5 -8 23 -25 39 -26 25 -29 26 -19 7z m161 -68
c-7 -9 -15 -13 -19 -10 -3 3 1 10 9 15 21 14 24 12 10 -5z m-41 -87 c-2 -13 1
-30 6 -38 7 -13 6 -13 -7 -2 -9 7 -13 22 -10 37 6 31 14 33 11 3z m-59 -5 c0
-2 -12 -3 -28 -2 -15 2 -34 -1 -42 -6 -12 -7 -13 -6 -3 6 11 14 73 15 73 2z"/>
<path d="M3985 1586 c-86 -14 -275 -63 -284 -73 -4 -3 8 -3 24 1 121 30 298
35 389 11 32 -8 62 -12 68 -9 6 4 8 2 4 -4 -6 -11 25 -26 54 -27 8 0 13 -4 12
-8 -5 -12 48 -67 62 -64 6 1 10 -6 8 -17 -2 -10 1 -15 6 -12 5 3 9 0 9 -7 -1
-6 5 -38 12 -70 12 -49 12 -68 0 -130 -8 -39 -14 -80 -13 -89 0 -9 -3 -15 -7
-12 -11 6 -22 -33 -13 -47 4 -7 3 -9 -3 -6 -13 8 -26 -20 -16 -35 4 -7 1 -8
-7 -3 -10 6 -12 4 -7 -8 4 -10 2 -16 -6 -14 -7 1 -11 -6 -11 -15 1 -10 -3 -15
-9 -11 -6 4 -8 0 -4 -10 4 -10 2 -16 -6 -14 -7 1 -12 -6 -12 -15 0 -9 -4 -20
-9 -25 -5 -5 -6 -2 -1 6 6 10 4 12 -4 7 -7 -5 -10 -14 -7 -22 3 -7 0 -16 -6
-20 -7 -5 -8 -2 -3 7 8 12 6 12 -9 0 -9 -8 -15 -20 -12 -27 3 -7 -3 -18 -12
-26 -16 -12 -16 -11 -3 7 14 19 13 19 -8 -1 -14 -13 -23 -34 -24 -56 -1 -20
-4 -36 -7 -35 -10 3 -77 -72 -71 -79 3 -4 1 -4 -6 0 -20 11 -75 -20 -138 -80
-33 -31 -51 -50 -40 -43 18 13 19 13 6 -3 -7 -10 -18 -15 -23 -12 -5 3 -19 -3
-31 -14 -37 -33 -178 -128 -277 -187 -52 -30 -91 -55 -87 -55 11 0 204 98 290
147 59 34 75 48 67 58 -7 9 -5 16 7 26 16 13 17 12 5 -3 -9 -11 -10 -18 -2
-23 12 -8 32 3 25 15 -3 4 3 7 13 6 9 0 16 5 14 12 -1 8 2 11 8 7 9 -6 120 69
120 82 0 3 -8 -1 -17 -8 -16 -13 -17 -12 -5 3 8 9 19 15 26 12 7 -3 21 6 32
18 19 23 19 23 -1 8 -18 -14 -19 -14 -7 2 8 9 19 15 26 12 13 -5 226 191 226
208 0 5 -6 6 -12 2 -7 -4 -2 5 11 19 30 33 42 36 15 5 -17 -21 -16 -21 9 1 15
14 26 32 25 40 -2 9 4 16 12 16 8 0 15 8 15 17 0 9 4 20 9 25 5 4 6 3 2 -4 -4
-7 -5 -13 -3 -13 13 0 68 101 61 111 -4 8 -3 9 4 5 14 -8 56 70 48 90 -3 8 -2
12 3 9 13 -8 24 30 16 58 -4 15 -3 18 3 9 12 -18 22 31 22 112 0 56 -28 146
-45 146 -3 0 -3 -5 1 -12 4 -7 3 -8 -5 -4 -6 4 -9 12 -5 17 3 6 -2 19 -12 30
-19 21 -39 26 -28 7 5 -9 2 -9 -9 1 -20 16 -22 25 -4 16 6 -4 3 1 -8 9 -11 9
-25 14 -33 11 -7 -2 -11 -1 -8 4 4 5 -15 17 -41 26 -65 22 -246 28 -348 11z
m198 -3 c-18 -2 -48 -2 -65 0 -18 2 -4 4 32 4 36 0 50 -2 33 -4z m-228 -23 c4
-6 -10 -10 -37 -9 -40 1 -41 2 -13 9 43 11 43 11 50 0z m78 -7 c-7 -2 -21 -2
-30 0 -10 3 -4 5 12 5 17 0 24 -2 18 -5z m484 -195 c-3 -8 -6 -5 -6 6 -1 11 2
17 5 13 3 -3 4 -12 1 -19z m-287 -591 c0 -2 -12 -14 -27 -28 l-28 -24 24 28
c23 25 31 32 31 24z m-106 -86 c3 -4 -5 -18 -19 -31 -26 -24 -31 -6 -6 24 15
18 18 19 25 7z m-154 -94 c0 -2 -15 -16 -32 -33 l-33 -29 29 33 c28 30 36 37
36 29z m0 -41 c0 -2 -8 -10 -17 -17 -16 -13 -17 -12 -4 4 13 16 21 21 21 13z
m-166 -117 c-3 -5 -10 -7 -15 -4 -5 4 -9 1 -9 -6 0 -7 -3 -9 -6 -6 -9 9 16 38
27 31 5 -3 7 -10 3 -15z m-44 -19 c0 -5 -15 -17 -32 -26 l-33 -16 30 26 c34
29 35 29 35 16z m-70 -45 c0 -2 -10 -9 -22 -15 -22 -11 -22 -10 -4 4 21 17 26
19 26 11z"/>
<path d="M4099 663 c-13 -16 -12 -17 4 -4 9 7 17 15 17 17 0 8 -8 3 -21 -13z"/>
<path d="M930 935 l0 -255 255 0 255 0 0 73 0 72 -137 -3 c-157 -4 -183 0
-183 28 0 18 9 20 148 22 l147 3 3 62 3 62 -148 3 c-140 3 -148 4 -148 23 0
19 8 20 158 23 l157 3 0 69 0 70 -255 0 -255 0 0 -255z m383 238 c-67 -2 -179
-2 -250 0 -70 1 -15 3 122 3 138 0 195 -2 128 -3z m30 -290 c-40 -2 -106 -2
-145 0 -40 1 -8 3 72 3 80 0 112 -2 73 -3z m-30 -190 c-67 -2 -179 -2 -250 0
-70 1 -15 3 122 3 138 0 195 -2 128 -3z"/>
<path d="M1490 1044 c0 -134 2 -154 32 -255 l32 -110 139 3 139 3 34 110 c31
103 34 120 34 253 l0 142 -90 0 -90 0 -2 -167 c-3 -160 -4 -168 -23 -168 -19
0 -20 8 -23 168 l-2 167 -90 0 -90 0 0 -146z m168 -21 l-2 -158 -3 152 -4 152
-77 4 -77 3 83 2 82 2 -2 -157z m230 20 l-2 -138 -3 132 -4 132 -77 4 -77 3
83 2 82 2 -2 -137z m-58 -343 c0 -6 -51 -9 -137 -8 l-138 2 135 6 c74 3 136 7
138 8 1 1 2 -2 2 -8z"/>
<path d="M1942 938 l3 -253 253 -3 252 -2 0 72 0 73 -147 -3 c-150 -2 -181 3
-170 32 5 14 28 16 152 16 l145 0 0 65 0 64 -147 3 c-140 3 -148 4 -148 23 0
19 8 20 158 23 l157 3 0 69 0 70 -255 0 -255 0 2 -252z m381 235 c-67 -2 -179
-2 -250 0 -70 1 -15 3 122 3 138 0 195 -2 128 -3z m30 -290 c-40 -2 -106 -2
-145 0 -40 1 -8 3 72 3 80 0 112 -2 73 -3z m-30 -190 c-67 -2 -179 -2 -250 0
-70 1 -15 3 122 3 138 0 195 -2 128 -3z"/>
<path d="M2500 935 l0 -255 90 0 89 0 3 158 c3 149 4 157 23 157 19 0 20 -8
23 -158 l3 -157 187 2 187 3 0 250 0 250 -92 3 -93 3 -2 -163 c-3 -137 -5
-163 -18 -163 -13 0 -15 26 -18 163 l-2 162 -190 0 -190 0 0 -255z m283 238
c-51 -2 -135 -2 -185 0 -51 1 -10 3 92 3 102 0 143 -2 93 -3z m280 0 c-23 -2
-64 -2 -90 0 -26 2 -7 3 42 3 50 0 71 -1 48 -3z m-430 -480 c-24 -2 -62 -2
-85 0 -24 2 -5 4 42 4 47 0 66 -2 43 -4z m380 0 c-51 -2 -135 -2 -185 0 -51 1
-10 3 92 3 102 0 143 -2 93 -3z"/>
<path d="M3150 1110 l0 -80 38 0 c21 0 43 -5 50 -12 8 -8 12 -62 12 -175 l0
-163 90 0 90 0 0 163 c0 113 4 167 12 175 7 7 29 12 50 12 l38 0 0 80 0 80
-190 0 -190 0 0 -80z m17 -37 c-2 -21 -4 -4 -4 37 0 41 2 58 4 38 2 -21 2 -55
0 -75z m351 35 l-2 -73 -3 67 -4 68 -167 3 -167 3 173 2 172 2 -2 -72z m-135
-415 c-24 -2 -62 -2 -85 0 -24 2 -5 4 42 4 47 0 66 -2 43 -4z"/>
<path d="M3644 1176 c-52 -23 -64 -50 -64 -144 0 -145 34 -172 216 -172 95 0
105 -2 102 -17 -3 -16 -21 -19 -162 -23 l-158 -5 0 -65 0 -65 200 -3 c190 -2
261 5 248 27 -3 5 2 8 12 7 10 0 16 6 16 16 -1 10 2 16 6 13 14 -8 20 24 20
100 0 77 -6 108 -20 100 -5 -3 -12 0 -16 6 -5 8 -3 9 6 4 8 -5 11 -3 8 6 -3 8
-12 13 -21 13 -9 -1 -15 3 -14 9 3 17 -43 25 -155 26 -101 1 -108 2 -108 21 0
19 7 20 160 20 l160 0 0 70 0 70 -202 0 c-148 -1 -211 -4 -234 -14z m334 -3
c-53 -2 -143 -2 -200 0 -57 1 -13 3 97 3 110 0 156 -2 103 -3z m-353 -263 c10
-11 16 -20 13 -20 -3 0 -13 9 -23 20 -10 11 -16 20 -13 20 3 0 13 -9 23 -20z
m193 -107 c-43 -2 -113 -2 -155 0 -43 1 -8 3 77 3 85 0 120 -2 78 -3z m60
-110 c-54 -2 -142 -2 -195 0 -54 1 -10 3 97 3 107 0 151 -2 98 -3z"/>
<path d="M1921 454 c-14 -116 -14 -114 3 -114 10 0 17 17 21 55 l7 55 41 0 40
0 -6 -60 c-7 -58 -6 -60 13 -50 11 6 20 19 20 29 0 10 3 39 6 65 l7 46 -57 0
-58 0 4 32 c2 22 -1 32 -13 33 -13 2 -18 -14 -28 -91z m26 44 c-3 -7 -5 -2 -5
12 0 14 2 19 5 13 2 -7 2 -19 0 -25z m71 -35 c-10 -2 -28 -2 -40 0 -13 2 -5 4
17 4 22 1 32 -1 23 -4z m39 -15 c-3 -8 -6 -5 -6 6 -1 11 2 17 5 13 3 -3 4 -12
1 -19z m-120 -35 c-3 -10 -5 -2 -5 17 0 19 2 27 5 18 2 -10 2 -26 0 -35z m110
-30 c-3 -10 -5 -2 -5 17 0 19 2 27 5 18 2 -10 2 -26 0 -35z m-120 -25 c-3 -7
-5 -2 -5 12 0 14 2 19 5 13 2 -7 2 -19 0 -25z"/>
<path d="M2274 542 c2 -4 -2 -47 -10 -97 -7 -49 -14 -93 -14 -97 0 -5 33 -8
74 -8 l73 0 7 38 c3 20 6 52 6 70 l0 32 -54 0 -54 0 2 31 c1 23 -4 32 -17 34
-9 2 -15 0 -13 -3z m94 -79 c-10 -2 -28 -2 -40 0 -13 2 -5 4 17 4 22 1 32 -1
23 -4z m12 -22 c0 -5 -3 -23 -6 -40 -6 -28 -10 -31 -45 -31 -35 0 -39 3 -39
24 0 45 10 56 51 56 21 0 39 -4 39 -9z m17 -23 c-3 -8 -6 -5 -6 6 -1 11 2 17
5 13 3 -3 4 -12 1 -19z m-120 -25 c-3 -10 -5 -4 -5 12 0 17 2 24 5 18 2 -7 2
-21 0 -30z m71 -40 c-10 -2 -28 -2 -40 0 -13 2 -5 4 17 4 22 1 32 -1 23 -4z"/>
<path d="M2096 463 c-2 -10 -8 -42 -11 -70 l-7 -53 75 0 74 0 7 46 c9 71 7 94
-8 94 -9 0 -16 -18 -21 -55 l-6 -55 -41 0 -41 0 7 55 c5 44 3 55 -8 55 -8 0
-17 -8 -20 -17z m131 -30 c-3 -10 -5 -4 -5 12 0 17 2 24 5 18 2 -7 2 -21 0
-30z m-120 -40 c-3 -10 -5 -2 -5 17 0 19 2 27 5 18 2 -10 2 -26 0 -35z m110
-30 c-3 -10 -5 -4 -5 12 0 17 2 24 5 18 2 -7 2 -21 0 -30z m-39 -10 c-10 -2
-28 -2 -40 0 -13 2 -5 4 17 4 22 1 32 -1 23 -4z"/>
</g>
</svg>
